<svg width="325" height="215" viewBox="0 0 325 215" fill="none" xmlns="http://www.w3.org/2000/svg">
<g style="mix-blend-mode:darken" filter="url(#filter0_d_0_1)">
<ellipse cx="152.5" cy="100" rx="152.5" ry="95" fill="url(#paint0_radial_0_1)" shape-rendering="crispEdges"/>
<path d="M304 100C304 125.763 287.234 149.239 259.805 166.326C232.39 183.404 194.455 194 152.5 194C110.545 194 72.6096 183.404 45.195 166.326C17.7658 149.239 1 125.763 1 100C1 74.2373 17.7658 50.7607 45.195 33.6736C72.6096 16.5956 110.545 6 152.5 6C194.455 6 232.39 16.5956 259.805 33.6736C287.234 50.7607 304 74.2373 304 100Z" stroke="black" stroke-width="2" shape-rendering="crispEdges"/>
</g>
<g style="mix-blend-mode:darken">
<path d="M131.863 139.489L125.631 135.878L125.735 135.301L125.423 135.245L125.07 137.206L125.381 137.262L125.548 136.339L130.112 138.96L124.879 140.053L125.043 139.142L124.731 139.086L124.17 142.2L124.482 142.256L124.588 141.667L130.719 140.415C131.246 140.311 131.558 140.212 131.654 140.119C131.732 140.037 131.787 139.908 131.819 139.732L131.863 139.489ZM126.046 131.13C125.861 132.153 126.029 133.076 126.547 133.9C127.084 134.751 127.88 135.271 128.933 135.461C130.14 135.678 131.16 135.414 131.993 134.667C132.629 134.091 133.028 133.353 133.19 132.453C133.374 131.431 133.206 130.511 132.687 129.695C132.139 128.858 131.342 128.346 130.297 128.157C129.028 127.929 127.982 128.204 127.159 128.985C126.573 129.546 126.202 130.261 126.046 131.13ZM132.862 132.358C132.72 133.143 132.267 133.609 131.502 133.757C130.96 133.857 130.228 133.825 129.305 133.658C127.545 133.341 126.571 132.773 126.386 131.953C126.331 131.729 126.327 131.486 126.374 131.225C126.531 130.356 127.119 129.887 128.14 129.817C128.63 129.786 129.221 129.833 129.913 129.957C131.55 130.253 132.51 130.743 132.791 131.429C132.902 131.695 132.925 132.005 132.862 132.358ZM134.727 123.264C134.526 123.275 134.404 123.36 134.359 123.519L134.218 124.303L127.921 123.168L127.956 122.972C128.056 122.419 128.373 122.071 128.906 121.929C129.022 121.902 129.158 121.875 129.314 121.848L130.416 121.677L130.479 121.331L128.002 120.933L126.926 126.907L129.386 127.398L129.448 127.052L128.474 126.507C128.013 126.249 127.729 125.972 127.624 125.675C127.557 125.473 127.548 125.241 127.595 124.979L127.63 124.783L133.927 125.918L133.73 127.013L134.041 127.07L134.727 123.264ZM131.345 115.069L129.122 114.716L128.083 120.483L128.395 120.539L128.561 119.616L134.858 120.751L134.692 121.674L135.003 121.73L136.042 115.963L133.836 115.518L133.776 115.853L134.524 116.261C135.08 116.568 135.376 116.951 135.412 117.41C135.42 117.546 135.41 117.687 135.384 117.833L135.149 119.136L132.07 118.581L132.469 116.367L132.123 116.305L131.724 118.519L128.852 118.002L129.087 116.698C129.2 116.068 129.578 115.688 130.221 115.557C130.296 115.539 130.37 115.525 130.443 115.514L131.285 115.404L131.345 115.069ZM133.627 114.433L134.047 112.103L134.496 112.184L134.077 114.514L133.627 114.433ZM137.444 105.606C137.735 105.667 137.908 105.63 137.964 105.497C137.989 105.446 138.009 105.379 138.024 105.294L135.752 104.885L135.684 105.265C136.701 105.742 137.245 106.36 137.314 107.119C137.332 107.329 137.319 107.556 137.274 107.802C137.099 108.779 136.435 109.29 135.283 109.337C134.828 109.35 134.278 109.299 133.632 109.182C131.527 108.795 130.594 107.916 130.833 106.546C130.963 105.824 131.355 105.343 132.009 105.103C132.323 104.993 132.714 104.917 133.182 104.874L133.255 104.47L130.977 104.096C130.94 104.295 130.981 104.426 131.097 104.486C131.171 104.516 131.27 104.537 131.394 104.552C130.913 105.156 130.599 105.861 130.453 106.669C130.221 107.96 130.492 109.029 131.269 109.876C131.827 110.476 132.526 110.852 133.364 111.003C134.355 111.182 135.247 111.013 136.039 110.497C136.877 109.942 137.397 109.106 137.598 107.992C137.74 107.2 137.689 106.405 137.444 105.606ZM138.673 101.362C138.472 101.374 138.35 101.459 138.306 101.618L138.195 102.229L135.116 101.674L135.644 98.7447L138.723 99.2995L138.557 100.222L138.868 100.278L139.492 96.8184C139.291 96.8299 139.169 96.915 139.124 97.0737L139.014 97.6849L132.717 96.5503L132.883 95.6276L132.572 95.5715L131.949 99.0314L132.26 99.0875L132.426 98.1649L135.298 98.6823L134.77 101.612L131.898 101.094L132.065 100.172L131.753 100.116L131.13 103.575L131.441 103.632L131.607 102.709L137.904 103.844L137.738 104.766L138.05 104.822L138.673 101.362ZM140.878 89.1258C140.693 89.0926 140.584 89.1246 140.551 89.2217C140.536 89.2588 140.525 89.3004 140.517 89.3465L140.454 89.6925L133.355 91.2236L133.202 92.077L139.355 95.7935L139.222 96.5316L139.533 96.5877L139.916 94.4656C139.731 94.4324 139.622 94.4644 139.589 94.5615C139.574 94.5986 139.563 94.6402 139.554 94.6863L139.438 95.3322L137.373 94.1028L137.787 91.8077L140.157 91.3417L140.01 92.1606L140.321 92.2167L140.878 89.1258ZM137.416 91.8838L137.052 93.9021L134.578 92.4323L137.416 91.8838ZM141.543 85.4353C141.342 85.4468 141.22 85.5319 141.175 85.6906L141.065 86.3018L134.768 85.1672L134.934 84.2445L134.623 84.1884L134 87.6483L134.311 87.7044L134.477 86.7818L140.774 87.9164L140.608 88.8391L140.919 88.8952L141.543 85.4353ZM135.926 78.7433L136.092 77.8206L140.555 78.6249L135.047 81.8357L134.696 83.7848L135.007 83.8409L135.173 82.9182L141.47 84.0529L141.304 84.9755L141.616 85.0316L142.046 82.6443C141.845 82.6558 141.723 82.7409 141.678 82.8996L141.558 83.5685L136.748 82.7019L142.727 79.1948L142.73 78.5166L136.179 77.3363L136.345 76.4136L136.034 76.3575L135.614 78.6872L135.926 78.7433Z" fill="black"/>
</g>
<g style="mix-blend-mode:darken" filter="url(#filter1_d_0_1)">
<path d="M158.85 -1.08679e-06L150.641 51.7736L147.017 88.3355L175.279 146.207C175.537 146.735 176.014 147.123 176.584 147.267L217.551 157.671C217.95 157.772 218.371 157.748 218.756 157.601L248.027 146.432C250.292 145.568 249.354 142.173 246.967 142.594L205.523 149.902C204.944 150.004 204.35 149.846 203.898 149.47L171.774 122.776C171.493 122.543 171.281 122.236 171.162 121.891L158.958 86.5606C158.886 86.3542 158.849 86.1376 158.848 85.9193L158.643 51.1254C158.641 50.6346 158.818 50.1598 159.143 49.7915L181.938 23.9223C182.173 23.6554 182.475 23.4561 182.813 23.3448L199.044 18.0023C201.401 17.2263 200.515 13.702 198.071 14.1329L181.793 17.0032C181.386 17.0749 181.012 17.2709 180.721 17.5643L152.305 46.2094C152.02 46.4965 151.829 46.8631 151.757 47.261L131.277 160.182C131.024 161.573 129.447 162.27 128.248 161.52L41.1499 107.003L136.177 178.816C137.413 179.75 139.195 178.986 139.37 177.447L142.163 152.95L147.017 88.3355L158.85 -1.08679e-06Z" fill="url(#paint1_radial_0_1)" style="mix-blend-mode:darken"/>
</g>
<defs>
<filter id="filter0_d_0_1" x="0" y="5" width="325" height="210" filterUnits="userSpaceOnUse" color-interpolation-filters="sRGB">
<feFlood flood-opacity="0" result="BackgroundImageFix"/>
<feColorMatrix in="SourceAlpha" type="matrix" values="0 0 0 0 0 0 0 0 0 0 0 0 0 0 0 0 0 0 127 0" result="hardAlpha"/>
<feOffset dx="15" dy="15"/>
<feGaussianBlur stdDeviation="2.5"/>
<feComposite in2="hardAlpha" operator="out"/>
<feColorMatrix type="matrix" values="0 0 0 0 0 0 0 0 0 0 0 0 0 0 0 0 0 0 0.25 0"/>
<feBlend mode="normal" in2="BackgroundImageFix" result="effect1_dropShadow_0_1"/>
<feBlend mode="normal" in="SourceGraphic" in2="effect1_dropShadow_0_1" result="shape"/>
</filter>
<filter id="filter1_d_0_1" x="41.1499" y="0" width="233.17" height="204.223" filterUnits="userSpaceOnUse" color-interpolation-filters="sRGB">
<feFlood flood-opacity="0" result="BackgroundImageFix"/>
<feColorMatrix in="SourceAlpha" type="matrix" values="0 0 0 0 0 0 0 0 0 0 0 0 0 0 0 0 0 0 127 0" result="hardAlpha"/>
<feOffset dx="15" dy="15"/>
<feGaussianBlur stdDeviation="5"/>
<feColorMatrix type="matrix" values="0 0 0 0 0.0625 0 0 0 0 0.0590278 0 0 0 0 0.0590278 0 0 0 0.25 0"/>
<feBlend mode="normal" in2="BackgroundImageFix" result="effect1_dropShadow_0_1"/>
<feBlend mode="normal" in="SourceGraphic" in2="effect1_dropShadow_0_1" result="shape"/>
</filter>
<radialGradient id="paint0_radial_0_1" cx="0" cy="0" r="1" gradientUnits="userSpaceOnUse" gradientTransform="translate(383 134) rotate(153.733) scale(257.599 291.71)">
<stop stop-color="#991111"/>
<stop offset="1" stop-color="#423C3C" stop-opacity="0"/>
</radialGradient>
<radialGradient id="paint1_radial_0_1" cx="0" cy="0" r="1" gradientUnits="userSpaceOnUse" gradientTransform="translate(113.219 209.715) rotate(-110.756) scale(234.201 382.608)">
<stop stop-color="#111010"/>
<stop offset="1" stop-color="#840606" stop-opacity="0"/>
</radialGradient>
</defs>
</svg>
